<svg width="38" height="38" viewBox="0 0 38 38" fill="none" xmlns="http://www.w3.org/2000/svg">
<path fill-rule="evenodd" clip-rule="evenodd" d="M9.23768 28.7627C8.743 28.2679 8.743 27.4659 9.23768 26.9714L26.0754 10.1336H15.2C14.5005 10.1336 13.9333 9.56647 13.9333 8.86692C13.9333 8.16736 14.5005 7.60025 15.2 7.60025H29.1333C29.4693 7.60025 29.7915 7.73371 30.0291 7.97126C30.2665 8.20881 30.4 8.53097 30.4 8.86692V22.8003C30.4 23.4998 29.8328 24.0669 29.1333 24.0669C28.4339 24.0669 27.8667 23.4998 27.8667 22.8003V11.9249L11.029 28.7627C10.5343 29.2572 9.73234 29.2572 9.23768 28.7627Z" fill="black"/>
</svg>
