<svg width="38" height="38" viewBox="0 0 38 38" fill="none" xmlns="http://www.w3.org/2000/svg">
<g clip-path="url(#clip0_1_20)">
<path d="M32.2437 5.87991C31.8757 6.90621 31.6812 7.92952 31.6662 8.95881C31.6513 9.9881 31.8128 11.0174 32.1539 12.0527L32.2736 12.4087L31.9176 12.289C30.9032 11.9509 29.8829 11.7864 28.8566 11.7983C27.8273 11.8133 26.792 12.0048 25.7448 12.3758L25.3708 12.5075L25.5054 12.1335C25.8735 11.1101 26.068 10.0838 26.0829 9.05455C26.0979 8.02526 25.9363 6.99597 25.5952 5.9607L25.4785 5.60463L25.8346 5.72432C26.8489 6.06243 27.8692 6.227 28.8955 6.21503C29.9218 6.20007 30.9601 6.00857 32.0043 5.63755L32.3783 5.50589L32.2437 5.87991ZM37.6415 19.0872C36.6571 19.5509 35.7954 20.1404 35.0563 20.8555C34.3172 21.5706 33.7039 22.4144 33.2131 23.3868L33.0456 23.722L32.878 23.3868C32.4023 22.4294 31.7949 21.5946 31.0588 20.8764C30.3198 20.1583 29.452 19.5629 28.4497 19.0872L28.0906 18.9166L28.4497 18.749C29.4341 18.2853 30.2958 17.6958 31.0349 16.9807C31.7739 16.2656 32.3873 15.4218 32.878 14.4464L33.0456 14.1112L33.2131 14.4464C33.6919 15.4038 34.2963 16.2416 35.0324 16.9568C35.7684 17.6749 36.6361 18.2703 37.6415 18.749L38.0005 18.9196L37.6415 19.0901V19.0872ZM31.7829 28.8923C31.7979 29.9186 31.9894 30.9569 32.3604 32.0012L32.492 32.3752L32.118 32.2405C31.0917 31.8725 30.0684 31.678 29.0391 31.6631C28.0098 31.6481 26.9805 31.8097 25.9453 32.1508L25.5892 32.2705L25.7089 31.9144C26.047 30.9001 26.2116 29.8798 26.1996 28.8535C26.1846 27.8242 25.9931 26.7889 25.6221 25.7416L25.4905 25.3676L25.8645 25.5023C26.8878 25.8703 27.9141 26.0648 28.9434 26.0798C29.9727 26.0947 31.002 25.9331 32.0372 25.592L32.3933 25.4753L32.2736 25.8314C31.9355 26.8457 31.7709 27.8661 31.7829 28.8923ZM23.5546 33.213C22.5971 33.6917 21.7593 34.2961 21.0442 35.0322C20.3261 35.7683 19.7306 36.636 19.2549 37.6413L19.0843 38.0004L18.9138 37.6413C18.45 36.6569 17.8605 35.7952 17.1454 35.0561C16.4303 34.3171 15.5865 33.7037 14.6141 33.213L14.279 33.0454L14.6141 32.8779C15.5716 32.4021 16.4064 31.7947 17.1245 31.0587C17.8426 30.3226 18.438 29.4519 18.9138 28.4495L19.0843 28.0905L19.2549 28.4495C19.7187 29.4339 20.3051 30.2957 21.0232 31.0347C21.7383 31.7738 22.5821 32.3872 23.5576 32.8779L23.8927 33.0454L23.5576 33.213H23.5546ZM12.4957 25.8613C12.1276 26.8846 11.9331 27.9109 11.9182 28.9402C11.9032 29.9695 12.0648 30.9988 12.4059 32.0341L12.5226 32.3901L12.1665 32.2705C11.1522 31.9324 10.1319 31.7678 9.10559 31.7798C8.07929 31.7947 7.04102 31.9862 5.99677 32.3572L5.62276 32.4889L5.7574 32.1149C6.12543 31.0886 6.31992 30.0653 6.33488 29.036C6.34984 28.0067 6.18827 26.9774 5.84716 25.9421L5.72748 25.5861L6.08354 25.7057C7.09787 26.0438 8.11819 26.2084 9.14449 26.1964C10.1738 26.1815 11.2091 25.99 12.2563 25.619L12.6303 25.4873L12.4957 25.8613ZM9.54842 19.2547C8.56401 19.7185 7.70228 20.3049 6.96323 21.0231C6.22417 21.7412 5.61079 22.582 5.12008 23.5574L4.95252 23.8925L4.78496 23.5574C4.30622 22.5999 3.70181 21.7621 2.96575 21.047C2.22968 20.3289 1.36197 19.7335 0.356614 19.2577L-0.00244141 19.0872L0.356614 18.9166C1.34102 18.4528 2.20276 17.8634 2.94181 17.1483C3.68087 16.4301 4.29425 15.5894 4.78496 14.6139L4.95252 14.2788L5.12008 14.6139C5.59583 15.5714 6.20323 16.4062 6.93929 17.1243C7.67535 17.8424 8.54606 18.4379 9.54842 18.9136L9.90748 19.0842L9.54842 19.2547ZM11.7985 9.14731C11.8135 10.1766 12.005 11.2119 12.376 12.2591L12.5076 12.6331L12.1336 12.4985C11.1103 12.1305 10.084 11.936 9.05472 11.921C8.02543 11.9061 6.99614 12.0676 5.96087 12.4087L5.6048 12.5254L5.72449 12.1694C6.0626 11.155 6.22716 10.1347 6.2152 9.10841C6.20024 8.08211 6.00874 7.04385 5.63772 5.99959L5.50606 5.62558L5.88008 5.76022C6.90638 6.12826 7.92968 6.32274 8.95898 6.3377C9.98827 6.35266 11.0176 6.19109 12.0528 5.84999L12.4089 5.7303L12.2892 6.08637C11.9511 7.1007 11.7865 8.12101 11.7985 9.14731ZM23.384 5.1229C22.4265 5.59865 21.5917 6.20605 20.8736 6.94211C20.1555 7.68117 19.5601 8.54889 19.0843 9.55125L18.9138 9.9103L18.7432 9.55125C18.2794 8.56684 17.693 7.70511 16.9749 6.96605C16.2568 6.227 15.416 5.61361 14.4405 5.1229L14.1054 4.95534L14.4405 4.78778C15.398 4.30904 16.2358 3.70463 16.9509 2.96857C17.6691 2.23251 18.2645 1.36479 18.7402 0.359437L18.9108 0.00038147L19.0813 0.359437C19.5451 1.34385 20.1346 2.20558 20.8497 2.94463C21.5678 3.68369 22.4086 4.29707 23.384 4.78778L23.7191 4.95534L23.384 5.1229Z" fill="#F8AFA6"/>
</g>
<defs>
<clipPath id="clip0_1_20">
<rect width="38" height="38" fill="white" transform="translate(0.000183105 0.000396729)"/>
</clipPath>
</defs>
</svg>
