<svg width="119" height="119" viewBox="0 0 119 119" fill="none" xmlns="http://www.w3.org/2000/svg">
<g clip-path="url(#clip0_1_42)">
<path d="M118.104 69.6869C117.594 72.5394 111.498 74.3812 102.562 74.3812H102.336C98.9952 71.661 94.9377 68.8935 90.3705 66.2961C89.0589 65.5499 87.7473 64.8415 86.4356 64.1804C87.9077 63.9915 89.3797 63.7742 90.8612 63.5192C95.9096 62.6408 100.684 61.4129 104.865 59.9584C113.206 62.9147 118.641 66.655 118.094 69.6775L118.104 69.6869ZM111.036 88.8323C110.215 90.2302 108.045 90.523 106.365 90.523C103.279 90.523 99.1651 89.5879 94.5885 87.9256C92.8145 84.9503 90.6065 81.7956 88.0398 78.5843C87.9549 78.4804 87.8605 78.367 87.7756 78.2631C87.5586 77.9892 87.3415 77.7248 87.1151 77.4509C86.7942 77.0636 86.4734 76.6764 86.1431 76.2985C85.1712 75.1557 84.1804 74.0506 83.1896 72.9927C84.6145 73.3044 86.0676 73.5972 87.568 73.8522C92.5409 74.7118 97.4949 75.184 101.958 75.2218C108.771 80.8133 112.583 86.1688 111.026 88.8229L111.036 88.8323ZM79.8586 114.618C79.5944 114.712 79.3019 114.759 78.9999 114.759C76.0181 114.759 71.819 110.301 67.8463 103.472C68.5635 99.2693 68.9598 94.4333 68.9598 89.2479C68.9598 87.765 68.9221 86.2916 68.856 84.8465C69.743 85.9893 70.6677 87.1322 71.6491 88.2845C74.0648 91.1181 76.5559 93.7249 79.0188 96.0012C79.953 96.8607 80.8683 97.6825 81.7836 98.4475C83.35 107.052 82.7838 113.569 79.8586 114.618ZM59.5047 118.16C56.3813 118.16 53.5882 112.228 52.0784 103.605C54.2299 99.8737 56.2964 95.4628 58.0704 90.6458C58.5894 89.2385 59.0612 87.85 59.5047 86.4805C59.9388 87.85 60.42 89.2385 60.939 90.6458C62.713 95.4534 64.7796 99.8643 66.931 103.605C65.4212 112.228 62.6281 118.16 59.5047 118.16ZM40.0095 114.769C39.7076 114.769 39.415 114.722 39.1508 114.627C36.2162 113.579 35.65 107.062 37.2258 98.457C40.5568 95.6612 44.0293 92.1948 47.3509 88.2939C48.3322 87.1511 49.257 85.9988 50.144 84.8559C50.0779 86.2916 50.0402 87.7556 50.0402 89.2574C50.0402 94.4428 50.446 99.2787 51.1537 103.482C47.1905 110.311 42.9819 114.769 40.0095 114.769ZM23.2791 105.069C22.4299 105.069 21.7505 104.861 21.2503 104.445C19.5801 103.066 19.8821 99.3732 22.0807 94.3105C22.8639 92.5065 23.8547 90.5891 25.0248 88.6151C29.1484 87.0944 33.6306 85.007 38.094 82.4663C39.4056 81.7201 40.6795 80.955 41.9156 80.1805C41.3495 81.5123 40.8116 82.8724 40.2926 84.2797C38.4903 89.1723 37.1881 93.8666 36.3954 98.0697C31.1678 102.433 26.3931 105.069 23.2886 105.069H23.2791ZM12.6351 90.5324C10.9554 90.5324 8.78511 90.2396 7.96416 88.8418C6.40718 86.1782 10.2194 80.8322 17.0323 75.2407C21.4862 75.2029 26.4402 74.7306 31.4226 73.8711C32.9229 73.6067 34.3855 73.3139 35.8104 73.0116C34.8196 74.0695 33.8288 75.1746 32.8569 76.3174C29.5542 80.1994 26.6856 84.1758 24.4303 87.9445C19.8443 89.6163 15.7302 90.5513 12.6351 90.5513V90.5324ZM16.4379 74.3906C7.51122 74.3906 1.41543 72.5488 0.896437 69.6964C0.358574 66.6739 5.78439 62.9336 14.1166 59.9773C18.193 61.4035 22.9489 62.6314 28.1293 63.5286C29.6108 63.7837 31.0923 64.0103 32.5549 64.1993C31.2433 64.8604 29.9411 65.5688 28.62 66.315C24.0529 68.9124 20.0048 71.6798 16.6643 74.4001H16.4284L16.4379 74.3906ZM7.96416 30.1777C8.78511 28.7798 10.9554 28.487 12.6351 28.487C15.7207 28.487 19.8349 29.4221 24.4115 31.0844C26.6101 34.7586 29.4598 38.7256 32.8474 42.7114C33.8194 43.8543 34.8102 44.9594 35.801 46.0173C34.3761 45.7056 32.9135 45.4128 31.4131 45.1577C28.8182 44.7044 26.2232 44.3643 23.7037 44.1282C21.4013 43.9204 19.1555 43.8071 17.0229 43.7882C10.21 38.1966 6.39775 32.8507 7.95472 30.1871L7.96416 30.1777ZM21.2503 14.5742C21.7505 14.1586 22.4299 13.9508 23.2791 13.9508C26.3836 13.9508 31.1678 16.5955 36.3954 20.9497C37.1881 25.1528 38.4808 29.8471 40.2926 34.7303C40.8116 36.1376 41.3589 37.5071 41.9156 38.8389C40.6889 38.0644 39.415 37.2993 38.094 36.5532C33.6401 34.0124 29.1673 31.9345 25.0437 30.4138C20.5804 22.8576 18.8535 16.5483 21.2409 14.5742H21.2503ZM39.1508 4.39229C39.415 4.29784 39.7076 4.25061 40.0095 4.25061C42.9819 4.25061 47.1905 8.70874 51.1537 15.5282C50.4365 19.7313 50.0402 24.5672 50.0402 29.7621C50.0402 30.2627 50.0402 30.7633 50.0496 31.2639C50.0496 31.6133 50.0591 31.9628 50.0779 32.3123C50.0779 32.4445 50.0779 32.5862 50.0874 32.7184C50.0968 33.2096 50.1251 33.6913 50.144 34.1635C49.257 33.0207 48.3322 31.8778 47.3509 30.7255C44.0293 26.8246 40.5568 23.3582 37.2258 20.5625C35.65 11.9579 36.2162 5.45015 39.1508 4.39229ZM78.9999 4.25061C79.3019 4.25061 79.585 4.29784 79.8586 4.39229C81.8968 5.11957 82.8971 8.6993 82.5951 14.1964C82.4913 16.161 82.2177 18.2956 81.8119 20.5436C78.4809 23.3488 74.9895 26.8152 71.6585 30.7255C70.6866 31.8684 69.7619 33.0112 68.8654 34.1635C68.9315 32.7279 68.9692 31.2639 68.9692 29.7621C68.9692 29.2426 68.9692 28.7326 68.9598 28.2131C68.9598 28.1564 68.9598 28.0997 68.9598 28.0431C68.9598 27.618 68.9409 27.193 68.9315 26.768C68.9221 26.3996 68.9032 26.0501 68.8937 25.6912C68.8937 25.5779 68.8937 25.4645 68.8843 25.3606C68.7239 21.8281 68.3747 18.5223 67.8652 15.5282C71.8378 8.6993 76.0369 4.25061 79.0188 4.25061H78.9999ZM95.7303 13.9508C96.5701 13.9508 97.259 14.1681 97.7591 14.5742C100.146 16.5483 98.4291 22.8576 93.9657 30.4138C89.8421 31.9345 85.3788 34.0124 80.9249 36.5532C79.6038 37.2993 78.3299 38.0644 77.1032 38.8389C77.6694 37.5071 78.2073 36.1376 78.7263 34.7303C80.4814 29.9699 81.8025 25.2567 82.6045 20.9592C87.8322 16.586 92.6258 13.9414 95.7303 13.9414V13.9508ZM106.374 28.487C108.054 28.487 110.224 28.7798 111.045 30.1777C112.13 32.0384 110.564 35.4009 106.752 39.4245C105.393 40.8602 103.798 42.3242 102.015 43.7787C97.5515 43.8165 92.5786 44.2888 87.5963 45.1483C86.0959 45.4033 84.6333 45.6961 83.2179 46.0078C84.2087 44.9499 85.1901 43.8449 86.1714 42.702C89.559 38.7256 92.4088 34.7586 94.6074 31.075C99.184 29.4126 103.298 28.4775 106.384 28.4775L106.374 28.487ZM75.4613 59.505C78.4904 58.4944 81.7459 57.1437 85.0768 55.5097C86.9358 55.7269 88.8324 55.9914 90.7291 56.322C95.3717 57.1248 99.7407 58.2393 103.572 59.5144C99.6935 60.8084 95.3246 61.8946 90.7291 62.688C88.8324 63.0186 86.9452 63.2831 85.0768 63.5003C81.7364 61.8663 78.4809 60.5156 75.4519 59.505H75.4613ZM75.8954 64.0576C75.0178 64.0576 74.1686 64.0387 73.3476 64.0009C71.8945 62.9053 70.479 61.9607 69.1485 61.1768C70.6866 60.8934 72.338 60.4778 74.0931 59.9395C77.0089 60.8557 80.1889 62.1119 83.4632 63.6609C80.8305 63.9159 78.2828 64.0481 75.8954 64.0481V64.0576ZM74.4988 64.8887C74.9612 64.8982 75.4142 64.9076 75.8954 64.9076C78.7263 64.9076 81.7836 64.7282 84.9258 64.3787C86.5866 65.2004 88.2757 66.0883 89.9459 67.0517C94.0318 69.3752 97.7497 71.8876 100.901 74.3812C96.7777 74.2867 92.2672 73.8239 87.7378 73.04C85.8223 72.7094 83.9539 72.3221 82.1422 71.8971C79.5661 69.2335 76.9711 66.8722 74.4894 64.9076L74.4988 64.8887ZM93.258 87.4344C89.4741 85.9704 85.4071 84.0342 81.3495 81.7295C79.6604 80.7756 78.0374 79.7744 76.4899 78.7637C74.9895 75.3824 73.3759 72.3032 71.7246 69.6302C74.6687 70.7542 78.0374 71.7837 81.7175 72.6527C82.9914 73.9845 84.2559 75.3824 85.5015 76.8464C88.5305 80.4072 91.1538 84.0247 93.258 87.425V87.4344ZM72.3191 87.7461C71.0735 86.2821 69.894 84.7992 68.7805 83.3258C68.554 79.6988 68.1105 76.2513 67.4877 73.1533C69.8562 75.2029 72.6588 77.2997 75.7916 79.3399C76.5371 81.0211 77.2353 82.7685 77.9053 84.5631C79.5189 88.9362 80.7362 93.2243 81.5288 97.1346C81.274 96.9174 81.0287 96.6907 80.7645 96.464C77.9714 93.9611 75.0933 91.0142 72.3096 87.7461H72.3191ZM57.4382 73.7295C58.278 72.1238 58.9763 70.6031 59.5141 69.1769C60.052 70.6031 60.7503 72.1238 61.5901 73.7295C61.1844 76.7047 60.4955 80.0011 59.5141 83.4675C58.5422 80.0011 57.8439 76.6952 57.4382 73.7295ZM52.6352 72.1616C53.5222 71.3587 54.3431 70.5464 55.098 69.753C55.4755 69.3563 55.8246 68.9691 56.1549 68.5913C56.1643 70.1119 56.2964 71.7837 56.5229 73.5689C55.1074 76.223 53.3146 79.0943 51.1914 82.0223C51.4745 78.4332 51.9746 75.0896 52.6257 72.1616H52.6352ZM51.5217 73.1439C50.9083 76.1946 50.4648 79.6233 50.2384 83.3352C49.1343 84.7992 47.9548 86.2821 46.6998 87.7461C43.6708 91.307 40.5191 94.4994 37.49 97.1346C38.2827 93.2243 39.4905 88.9362 41.1041 84.5631C41.7741 82.7591 42.4724 81.0117 43.2178 79.3399C46.294 77.3281 49.106 75.2312 51.5122 73.1533L51.5217 73.1439ZM48.6531 69.0919C50.3422 68.4024 51.8708 67.6656 53.2108 66.9195C52.6918 68.3551 52.2294 69.9797 51.8236 71.746C49.5401 73.7956 46.8508 75.8735 43.8878 77.8759C45.3976 74.6079 47.0206 71.6326 48.6531 69.0919ZM47.3037 69.6208C45.6524 72.2938 44.0293 75.3824 42.5384 78.7637C40.9814 79.7744 39.3584 80.7661 37.6788 81.7201C33.6118 84.0342 29.5353 85.9704 25.742 87.4344C27.884 83.9775 30.5261 80.3694 33.5268 76.8464C34.7819 75.3824 36.0463 73.9845 37.3108 72.6527C40.9909 71.7837 44.3596 70.7542 47.3037 69.6208ZM45.9449 64.8415C46.1619 64.8321 46.3695 64.8226 46.5865 64.8132C47.2754 64.7754 47.9454 64.7187 48.587 64.6621C49.4552 64.5771 50.2855 64.4732 51.0687 64.3409C50.0874 65.5121 49.0966 66.8628 48.1152 68.374C45.2844 69.5169 42.01 70.5842 38.4525 71.5004C41.0003 68.9313 43.5481 66.6833 45.9543 64.851L45.9449 64.8415ZM43.1329 64.9076C43.6047 64.9076 44.0671 64.9076 44.5295 64.8887C42.0477 66.8533 39.4622 69.2147 36.8861 71.8782C35.0744 72.3032 33.206 72.6905 31.2905 73.0211C26.7611 73.805 22.2411 74.2678 18.1175 74.3717C21.2786 71.8782 24.9871 69.3658 29.0729 67.0423C30.7526 66.0883 32.4322 65.191 34.093 64.3693C37.2353 64.7187 40.2926 64.8982 43.1235 64.8982L43.1329 64.9076ZM15.4848 59.5144C19.3065 58.2393 23.666 57.1342 28.2992 56.3314C30.1959 56.0008 32.0831 55.7269 33.942 55.5191C37.2824 57.1531 40.5379 58.4944 43.567 59.5144C40.5379 60.5251 37.2824 61.8757 33.942 63.5098C32.0831 63.2925 30.1959 63.028 28.2992 62.6975C23.666 61.8946 19.3065 60.7895 15.4848 59.5144ZM16.4567 44.6288C16.5322 44.6288 16.6172 44.6288 16.6926 44.6288C20.0331 47.349 24.0906 50.107 28.6483 52.7045C29.96 53.4506 31.2716 54.1496 32.5832 54.8202C31.1206 55.0091 29.6391 55.2263 28.1576 55.4813C22.9772 56.3786 18.2213 57.616 14.1449 59.0327C5.78439 56.0764 0.349137 52.3455 0.896437 49.3136C1.02854 48.5675 1.54754 47.8969 2.38736 47.3018C4.77472 45.6206 9.83252 44.6099 16.4379 44.6099L16.4567 44.6288ZM31.2905 45.9984C33.206 46.3289 35.0744 46.7162 36.8861 47.1412C39.4622 49.8142 42.0477 52.1661 44.5295 54.1307C44.0765 54.1212 43.6141 54.1118 43.1329 54.1118C40.2926 54.1118 37.2447 54.2912 34.1024 54.6407C32.4417 53.819 30.762 52.9311 29.0824 51.9677C24.9965 49.6442 21.2786 47.1318 18.1269 44.6383C19.9104 44.676 21.7599 44.7894 23.6566 44.9688C26.1477 45.1955 28.7238 45.545 31.2905 45.9889V45.9984ZM47.3037 49.3986C44.3596 48.2652 40.9909 47.2357 37.3108 46.3667C36.0369 45.0444 34.7724 43.6371 33.5268 42.1731C30.4978 38.6122 27.8745 34.9947 25.7703 31.5944C29.5542 33.0585 33.6212 34.9947 37.6788 37.2993C39.3679 38.2628 40.9909 39.2545 42.5384 40.2557C44.0388 43.6371 45.6524 46.7256 47.3037 49.3986ZM51.8331 47.3112C52.2388 49.0681 52.7012 50.6737 53.2108 52.1094C51.8614 51.3632 50.3422 50.636 48.6531 49.937C47.0206 47.4057 45.407 44.4305 43.8972 41.1624C46.9074 43.2026 49.5873 45.29 51.8331 47.3112ZM51.5217 45.8661C49.1532 43.826 46.3601 41.7291 43.2178 39.689C42.4818 38.0077 41.7741 36.2604 41.1041 34.4658C39.4905 30.0927 38.2733 25.8045 37.49 21.8942C40.5191 24.5294 43.6708 27.7219 46.6998 31.2828C47.9454 32.7468 49.1249 34.2297 50.2384 35.6937C50.4648 39.3962 50.9083 42.8248 51.5217 45.8661ZM51.8708 16.7749C53.8052 20.2791 55.6736 24.3216 57.2778 28.6664C57.9477 30.4705 58.5328 32.2556 59.0612 34.003C57.9949 37.5544 57.2212 40.9263 56.7399 43.996C55.2207 41.2758 53.324 38.3666 51.0876 35.3914C50.9744 33.5685 50.9178 31.6889 50.9178 29.7715C50.9178 25.1339 51.2669 20.7041 51.8708 16.7749ZM67.5161 45.8661C68.1294 42.8248 68.5729 39.3867 68.7994 35.6842C69.9034 34.2108 71.0924 32.7373 72.3285 31.2828C75.367 27.7125 78.5281 24.52 81.5666 21.8753C80.7645 25.8423 79.5283 30.1304 77.9242 34.4658C77.2637 36.2604 76.5559 38.0077 75.8105 39.689C72.6777 41.7291 69.8845 43.826 67.5161 45.8661ZM70.3847 49.937C68.6956 50.636 67.1669 51.3632 65.8175 52.1094C65.9025 51.8638 65.9968 51.6183 66.0723 51.3632C66.4875 50.1259 66.865 48.7658 67.1952 47.3112C69.441 45.29 72.1304 43.2026 75.1311 41.1624C73.6213 44.421 71.9983 47.3963 70.3752 49.9276L70.3847 49.937ZM71.7246 49.4081C73.3759 46.7351 74.9895 43.656 76.4899 40.2746C78.0374 39.2639 79.6604 38.2722 81.3495 37.3088C85.4071 35.0042 89.4741 33.0679 93.258 31.6039C91.1538 35.0042 88.5305 38.6217 85.5015 42.1825C84.2559 43.6465 82.982 45.0538 81.7175 46.3762C78.0374 47.2451 74.6687 48.2747 71.7246 49.4081ZM73.0928 54.1873C71.215 54.2724 69.4977 54.4424 67.969 54.6879C68.9504 53.5167 69.9412 52.1661 70.9225 50.6548C73.7534 49.5025 77.0277 48.4352 80.5852 47.5285C78.0374 50.0976 75.4896 52.3455 73.0834 54.1779L73.0928 54.1873ZM75.8954 54.1212C75.4236 54.1212 74.9612 54.1212 74.4988 54.1401C76.9806 52.1755 79.5661 49.8237 82.1516 47.1507C83.9539 46.7256 85.8223 46.3384 87.7473 46.0078C92.2861 45.2144 96.806 44.761 100.949 44.6571C97.7402 47.179 94.0035 49.682 89.9554 51.9866C88.2757 52.9406 86.5961 53.8379 84.9353 54.6596C81.793 54.3101 78.7451 54.1307 75.9048 54.1307L75.8954 54.1212ZM69.1485 57.8426C70.479 57.0681 71.8945 56.1142 73.3476 55.0185C74.1686 54.9902 75.0178 54.9713 75.886 54.9713C78.2733 54.9713 80.8305 55.1035 83.4632 55.3586C80.1794 56.9076 77.0089 58.1638 74.0931 59.0894C72.3474 58.551 70.6866 58.1354 69.1485 57.8521V57.8426ZM65.7515 59.5239C66.4592 59.25 67.1952 58.9099 67.9595 58.5038C69.3939 58.7116 70.9508 59.0611 72.6116 59.5239C70.9508 59.9867 69.3939 60.3267 67.9595 60.544C67.1952 60.1378 66.4498 59.7978 65.7515 59.5239ZM67.969 64.3504C69.4977 64.6054 71.215 64.7754 73.0928 64.851C75.4991 66.6833 78.0374 68.9313 80.5946 71.5004C77.0372 70.5936 73.7628 69.5263 70.932 68.374C69.9506 66.8628 68.9598 65.5121 67.9784 64.3409L67.969 64.3504ZM65.3269 65.6633C64.9966 64.8604 64.6474 64.1426 64.2983 63.4814C65.0155 63.7175 65.7987 63.9253 66.6574 64.1048C67.5915 65.1532 68.5446 66.3811 69.4977 67.7695C67.9407 67.08 66.5441 66.3717 65.3363 65.6538L65.3269 65.6633ZM66.3082 68.4118C66.1478 67.8923 65.978 67.4012 65.8175 66.9289C67.1575 67.6751 68.6956 68.4118 70.3847 69.1108C72.0171 71.6515 73.6307 74.6173 75.1405 77.8853C72.1304 75.8452 69.441 73.7578 67.1952 71.7365C66.931 70.5653 66.6291 69.4697 66.3177 68.4213L66.3082 68.4118ZM62.8451 67.25C62.8074 66.3811 62.7319 65.5783 62.6187 64.8415C63.2131 65.3043 63.8831 65.7766 64.6286 66.2394C64.9305 66.9856 65.2136 67.7884 65.4778 68.6574C65.676 69.2997 65.8647 69.9703 66.044 70.6598C64.8079 69.4886 63.7321 68.3362 62.8451 67.25ZM62.496 73.5878C62.7225 71.8026 62.8451 70.1308 62.864 68.6102C63.8737 69.7719 65.0626 70.9809 66.412 72.2088C67.082 75.184 67.5538 78.5182 67.8369 82.0601C65.7137 79.1227 63.9114 76.2513 62.5054 73.5878H62.496ZM57.4099 63.9631C57.6835 63.6987 57.9289 63.4436 58.1553 63.1886C58.1553 63.5192 58.1742 63.8687 58.212 64.237C57.9194 64.8037 57.542 65.3988 57.1079 66.0222C57.174 65.276 57.2683 64.5865 57.4099 63.9726V63.9631ZM55.985 62.9997C56.3247 62.8486 56.655 62.688 56.9475 62.5275C56.8343 62.8391 56.7305 63.1792 56.6455 63.5381C56.1643 63.9631 55.617 64.3976 54.9848 64.8321C55.3056 64.152 55.6359 63.5475 55.985 63.0092V62.9997ZM54.7206 63.4814C54.3525 64.1331 54.0128 64.8699 53.6826 65.6633C52.4747 66.3811 51.0687 67.0895 49.5118 67.779C50.4648 66.3905 51.4179 65.1627 52.3521 64.1142C53.2108 63.9348 54.0034 63.727 54.7206 63.4814ZM51.0499 58.5038C51.8142 58.9099 52.5597 59.25 53.2579 59.5239C52.5502 59.7978 51.8142 60.1378 51.0499 60.544C49.6156 60.3362 48.0586 59.9961 46.3978 59.5239C48.0586 59.0611 49.6156 58.7116 51.0499 58.5038ZM49.8609 57.8426C48.3228 58.126 46.6715 58.5416 44.9258 59.08C42.01 58.1638 38.83 56.8981 35.5462 55.3491C38.1789 55.0941 40.7267 54.9619 43.1235 54.9619C44.001 54.9619 44.8503 54.9807 45.6618 55.0091C47.115 56.1047 48.5304 57.0492 49.8609 57.8332V57.8426ZM51.9557 55.7364C52.5314 56.3692 53.107 56.9265 53.6637 57.4176C52.8805 57.4365 52.0501 57.5121 51.1631 57.6348C49.9081 56.9548 48.5682 56.1142 47.1716 55.113C48.9362 55.2358 50.5403 55.4436 51.9557 55.7364ZM48.0869 50.6643C49.0683 52.1755 50.0685 53.5262 51.0404 54.6974C49.5118 54.4424 47.7944 54.2818 45.926 54.1968C43.5198 52.3644 40.972 50.1165 38.4242 47.5474C41.9817 48.4541 45.256 49.5214 48.0869 50.6737V50.6643ZM56.1454 50.4376C55.1452 49.2853 53.9657 48.0858 52.6163 46.8579C51.9652 43.9299 51.4745 40.5957 51.182 37.0065C53.2957 39.9346 55.098 42.8059 56.5134 45.46C56.2775 47.2546 56.1549 48.9169 56.1454 50.4376ZM59.0518 51.146C58.7781 51.9772 58.5705 52.7517 58.4196 53.479C58.0232 52.8367 57.5609 52.185 57.023 51.5049C56.9947 50.1165 57.0702 48.5675 57.2495 46.8957C57.9949 48.4069 58.6083 49.8426 59.0612 51.1554L59.0518 51.146ZM61.5807 45.3183C61.0239 46.3762 60.5333 47.4151 60.0992 48.4163C59.8822 48.9169 59.6934 49.3986 59.5141 49.8615C58.9763 48.4352 58.278 46.9145 57.4382 45.2994C57.8439 42.3242 58.5328 39.0278 59.5141 35.5614C60.4955 39.0278 61.1844 42.3336 61.5901 45.3089L61.5807 45.3183ZM62.2884 44.0243C61.8072 40.9546 61.0334 37.5732 59.9577 34.0124C60.4861 32.2651 61.0806 30.4705 61.7411 28.6759C63.3452 24.3311 65.2042 20.2885 67.148 16.7844C67.7614 20.7136 68.1011 25.1434 68.1011 29.781C68.1011 31.6983 68.0445 33.5779 67.9218 35.4009C65.7326 38.3289 63.8171 41.2474 62.2695 44.0149L62.2884 44.0243ZM66.3931 46.8673C65.0532 48.0858 63.8642 49.2853 62.8734 50.4471C62.8546 48.9264 62.7319 47.2451 62.496 45.4505C63.9303 42.7492 65.7326 39.8968 67.8274 37.0065C67.5444 40.6052 67.0442 43.9488 66.3931 46.8768V46.8673ZM64.6286 52.8272C63.8831 53.2806 63.2131 53.7529 62.6187 54.2157C62.7319 53.4695 62.8074 52.6667 62.8451 51.8072C63.7227 50.721 64.7984 49.5875 66.0157 48.4163C65.9685 48.6052 65.9213 48.7941 65.8742 48.9736C65.4967 50.3809 65.0815 51.6749 64.6286 52.8178V52.8272ZM64.2889 55.5758C64.6569 54.9241 64.9966 54.1968 65.3269 53.394C66.5347 52.6761 67.9312 51.9583 69.4882 51.2782C68.5352 52.6667 67.5821 53.904 66.6574 54.943C65.7987 55.1224 65.006 55.3302 64.2889 55.5758ZM64.0341 57.4459C63.6566 57.4743 63.2886 57.5121 62.9584 57.5687C63.166 57.3232 63.3736 57.0492 63.5717 56.7659C64.1662 56.5203 64.8456 56.3031 65.5816 56.0953C65.0532 56.6148 64.5342 57.0681 64.0341 57.4459ZM65.3457 57.4365C65.9119 56.9453 66.4781 56.3786 67.0537 55.7552C68.4691 55.4624 70.0733 55.2547 71.8378 55.1319C70.4413 56.1236 69.1013 56.9737 67.8463 57.6537C66.9593 57.5309 66.1195 57.4554 65.3457 57.4365ZM64.2983 59.0516C63.9963 58.9666 63.7038 58.9005 63.4207 58.8533C63.7133 58.6927 63.9963 58.5038 64.2889 58.2866C64.5059 58.2771 64.7229 58.2771 64.9305 58.2771C65.4118 58.2771 65.9308 58.3055 66.4592 58.3527C65.7704 58.6644 65.1098 58.9194 64.487 59.1083C64.4304 59.0894 64.3644 59.0705 64.3077 59.0516H64.2983ZM65.3457 61.649C66.1289 61.6302 66.9593 61.5546 67.8463 61.4318C69.1013 62.1024 70.4413 62.9525 71.8378 63.9537C70.0733 63.8309 68.4691 63.6137 67.0537 63.3303C66.4781 62.6975 65.9025 62.1308 65.3457 61.649ZM62.9678 61.5168C63.3075 61.5735 63.6566 61.6018 64.0341 61.6302C64.5342 62.008 65.0532 62.4613 65.5816 62.9808C64.8456 62.7825 64.1756 62.5652 63.5812 62.3197C63.383 62.0269 63.1754 61.7624 62.9678 61.5168ZM62.0619 62.5463C62.3544 62.7069 62.6753 62.8675 63.015 63.0186C63.3641 63.5475 63.6944 64.1615 64.0247 64.8415C63.4019 64.4165 62.8451 63.982 62.3733 63.557C62.2884 63.1981 62.1846 62.8675 62.0714 62.5463H62.0619ZM60.8069 64.2748C60.8447 63.9065 60.8635 63.5475 60.873 63.2075C61.0994 63.4625 61.3353 63.727 61.6184 63.982C61.76 64.6054 61.8543 65.2949 61.9204 66.0411C61.4769 65.4271 61.1089 64.8321 60.8163 64.2654L60.8069 64.2748ZM54.9942 61.6302C55.3717 61.6018 55.7397 61.564 56.0699 61.5074C55.8623 61.753 55.6642 62.0269 55.466 62.3102C54.8715 62.5558 54.1921 62.7825 53.4561 62.9808C53.9845 62.4613 54.5035 62.008 55.0036 61.6302H54.9942ZM53.6826 61.649C53.1164 62.1308 52.5502 62.6975 51.9746 63.3303C50.5592 63.6137 48.955 63.8214 47.1905 63.9537C48.587 62.9525 49.927 62.1024 51.182 61.4318C52.069 61.5546 52.9088 61.6302 53.6826 61.649ZM55.6076 60.2323C55.3245 60.4023 55.032 60.5817 54.7394 60.799C54.5224 60.8084 54.3054 60.8179 54.0978 60.8179C53.6165 60.8179 53.0975 60.7895 52.5691 60.7423C53.2579 60.4306 53.9279 60.1756 54.5413 59.9773C54.9093 60.0906 55.2584 60.1662 55.6076 60.2323ZM54.7394 58.2866C55.032 58.5038 55.3245 58.6927 55.6076 58.8533C55.2679 58.9194 54.9093 59.0044 54.5413 59.1083C53.9185 58.9194 53.2579 58.6644 52.5691 58.3527C53.0975 58.3055 53.6165 58.2771 54.0978 58.2771C54.3054 58.2771 54.5224 58.2771 54.7394 58.2866ZM55.4566 56.7659C55.6547 57.0587 55.8623 57.3232 56.0699 57.5687C55.7302 57.5121 55.3811 57.4743 55.0036 57.4459C54.5035 57.0681 53.9845 56.6148 53.4561 56.0953C54.1921 56.2936 54.8621 56.5109 55.4566 56.7659ZM53.7014 53.4034C53.7014 53.4034 53.7109 53.4412 53.7203 53.4601C53.7486 53.5167 53.7675 53.5734 53.7958 53.6301C53.8619 53.7812 53.9185 53.9134 53.9845 54.0551C54.2299 54.6029 54.4846 55.113 54.7394 55.5758C54.0223 55.3397 53.2296 55.1319 52.3709 54.943C51.4462 53.8945 50.4931 52.6667 49.5401 51.2782C51.0971 51.9677 52.503 52.6761 53.7109 53.394L53.7014 53.4034ZM58.1553 55.8686C57.9383 55.6136 57.693 55.3491 57.4193 55.0941C57.2778 54.4707 57.174 53.7812 57.1079 53.035C57.5514 53.649 57.91 54.2346 58.212 54.8013C58.1742 55.1791 58.1553 55.5286 58.1459 55.8686H58.1553ZM59.9388 54.6596C59.7689 54.9902 59.6274 55.3208 59.5141 55.6419C59.4009 55.3302 59.2594 55.0091 59.099 54.6785C59.1839 54.0457 59.3254 53.3656 59.5236 52.6289C59.7217 53.3562 59.8633 54.0362 59.9482 54.6691L59.9388 54.6596ZM61.609 55.0941C61.3353 55.3586 61.09 55.6136 60.8635 55.878C60.8635 55.538 60.8447 55.1885 60.7975 54.8107C61.0994 54.244 61.4674 53.649 61.9015 53.035C61.8355 53.7812 61.7317 54.4707 61.5996 55.0941H61.609ZM63.0339 56.0575C62.6847 56.2086 62.3639 56.3692 62.0619 56.5392C62.1752 56.2275 62.279 55.8875 62.3639 55.5286C62.8451 55.1035 63.3924 54.6691 64.0247 54.244C63.7038 54.9241 63.3736 55.5286 63.0339 56.0669V56.0575ZM56.6644 55.5286C56.7493 55.8875 56.8531 56.2181 56.9664 56.5392C56.6739 56.3692 56.353 56.2181 56.0133 56.0669C55.6642 55.538 55.3339 54.9241 55.0036 54.244C55.6264 54.6691 56.1832 55.1035 56.655 55.5286H56.6644ZM64.2983 60.7895C64.0058 60.5723 63.7133 60.3928 63.4302 60.2228C63.7699 60.1567 64.1285 60.0812 64.4965 59.9678C65.1193 60.1567 65.7798 60.4117 66.4686 60.7329C65.9402 60.7801 65.4212 60.8084 64.94 60.8084C64.7324 60.8084 64.5248 60.8084 64.2983 60.7895ZM62.0053 51.5049C61.4674 52.185 60.9956 52.8556 60.5993 53.4884C60.4483 52.7517 60.2407 51.9677 59.9671 51.146C60.2313 50.3904 60.5333 49.597 60.9013 48.7564C61.1655 48.1424 61.4674 47.5096 61.7788 46.8673C61.9581 48.5486 62.0336 50.1165 62.0053 51.5144V51.5049ZM56.1832 51.8072C56.2115 52.6667 56.287 53.4695 56.4002 54.2157C55.8057 53.7529 55.1358 53.2806 54.3997 52.8272C53.8902 51.5332 53.4184 50.0504 53.0032 48.4163C54.2204 49.5875 55.2962 50.721 56.1832 51.8072ZM59.4575 66.2394C59.2877 65.5971 59.165 64.9926 59.0895 64.4259C59.2594 64.0954 59.4009 63.7648 59.5141 63.4436C59.6368 63.7648 59.7689 64.0859 59.9388 64.4165C59.8539 65.0493 59.7123 65.7294 59.5141 66.4567C59.4953 66.3811 59.4764 66.315 59.4575 66.2394ZM61.7788 72.171C61.0334 70.6598 60.4295 69.2335 59.9671 67.9112C60.2407 67.0895 60.4483 66.3055 60.5993 65.5688C60.9956 66.2111 61.4674 66.8722 62.0053 67.5617C62.0336 68.9502 61.9581 70.4992 61.7788 72.171ZM35.5556 63.6987C38.8394 62.1497 42.01 60.8934 44.9352 59.9773C46.6809 60.5156 48.3417 60.9312 49.8703 61.2146C48.5398 61.9985 47.1244 62.943 45.6712 64.0292C44.8503 64.067 44.0105 64.0859 43.1329 64.0859C40.7455 64.0859 38.1883 63.9537 35.5556 63.6987ZM54.4752 69.2052C54.0128 69.6964 53.5127 70.1875 52.9937 70.6881C53.4089 69.0446 53.8807 67.5523 54.3903 66.2489C55.1357 65.786 55.7963 65.3232 56.3908 64.851C56.2775 65.5971 56.202 66.4 56.1643 67.2689C55.6642 67.8923 55.098 68.544 54.4658 69.2052H54.4752ZM57.0324 67.5712C57.5703 66.8911 58.0421 66.2205 58.4384 65.5877C58.5894 66.3244 58.797 67.0989 59.0706 67.9207C58.6177 69.2335 58.0044 70.6692 57.2589 72.1804C57.0796 70.5086 57.0041 68.9596 57.0324 67.5712ZM64.1096 5.50682C64.1473 5.59183 64.1851 5.67684 64.2323 5.77129C64.2794 5.87519 64.3266 5.97908 64.3738 6.08298C65.4212 8.53873 66.2988 11.7406 66.9499 15.4337C64.8079 19.1646 62.7413 23.5755 60.9579 28.3831C60.4389 29.7904 59.9577 31.1883 59.5236 32.5579C59.0895 31.1883 58.6083 29.7999 58.0893 28.3831C56.3153 23.5755 54.2487 19.1646 52.0973 15.4337C53.6071 6.8197 56.4002 0.878678 59.5236 0.878678C59.6651 0.878678 59.7972 0.888123 59.9388 0.916458C61.4014 1.17148 62.8546 2.78661 64.119 5.50682H64.1096ZM51.0876 83.6658C53.324 80.6906 55.2301 77.7814 56.7399 75.0612C57.2212 78.1215 57.9949 81.4934 59.0706 85.0542C58.5422 86.8016 57.9477 88.5962 57.2872 90.3908C55.683 94.7356 53.8241 98.7876 51.8803 102.282C51.2763 98.3531 50.9272 93.9233 50.9272 89.2857C50.9272 87.3683 50.9838 85.4887 51.0971 83.6658H51.0876ZM68.12 89.2857C68.12 93.9233 67.7708 98.3531 67.1669 102.282C65.2325 98.7876 63.3641 94.7356 61.76 90.3908C61.09 88.5867 60.505 86.8016 59.9765 85.0542C61.0428 81.5029 61.8166 78.1309 62.2978 75.0612C63.8171 77.7814 65.7137 80.6906 67.9595 83.6752C68.0633 85.5076 68.12 87.3778 68.12 89.2857ZM98.1743 97.6919C98.212 97.8241 98.2498 97.9564 98.2875 98.0792C98.3347 98.2586 98.3913 98.4475 98.4385 98.627C98.4385 98.6459 98.4385 98.6648 98.4479 98.6742C99.0613 101.224 98.9481 103.132 98.0611 104.171C97.9761 104.275 97.8723 104.37 97.7685 104.464C97.2684 104.88 96.589 105.087 95.7397 105.087C92.6352 105.087 87.8511 102.443 82.6234 98.0886C81.8402 93.8855 80.538 89.1912 78.7263 84.2986C78.2073 82.8913 77.66 81.5312 77.1032 80.1994C78.3299 80.9645 79.6038 81.739 80.9249 82.4852C85.3788 85.0165 89.8421 87.1039 93.9657 88.6245C95.8907 91.8926 97.3156 94.9245 98.1082 97.4747C98.1271 97.5408 98.1554 97.6163 98.1743 97.6919ZM102.581 44.6571C111.508 44.6571 117.603 46.499 118.122 49.3609C118.5 51.4671 115.858 54.1118 110.875 56.5959C109.101 57.4837 107.101 58.3149 104.931 59.0894C100.845 57.6632 96.07 56.4353 90.8801 55.5286C89.3986 55.2735 87.9171 55.0469 86.4545 54.8674C87.7662 54.1968 89.0684 53.4978 90.3894 52.7517C94.8339 50.2204 98.9103 47.4529 102.336 44.676C102.421 44.676 102.506 44.676 102.59 44.676L102.581 44.6571ZM106.176 59.5333C108.016 58.8533 109.724 58.1166 111.262 57.3515C116.688 54.6407 119.425 51.7505 118.962 49.2097C118.377 45.9228 112.555 43.9204 103.345 43.8165C104.836 42.5509 106.195 41.2852 107.375 40.0384C111.527 35.6653 113.102 32.0289 111.791 29.7904C110.97 28.3831 109.149 27.6747 106.374 27.6747C103.421 27.6747 99.552 28.4964 95.2585 29.9793C99.5992 22.3665 100.977 16.161 98.3158 13.9603C97.6553 13.4219 96.7872 13.1385 95.7397 13.1385C92.6164 13.1385 87.9454 15.6132 82.8405 19.7407C83.1613 17.8139 83.3689 15.991 83.4727 14.272C83.8029 8.29315 82.6329 4.51508 80.17 3.62723C79.8114 3.495 79.4245 3.42888 79.0188 3.42888C75.8577 3.42888 71.6397 7.63199 67.6387 14.2625C67.0254 11.0795 66.2327 8.29315 65.2985 6.06409C65.2891 6.02631 65.2702 5.98853 65.2608 5.96019C65.1853 5.79018 65.1098 5.62961 65.0438 5.4596C64.9777 5.32736 64.9211 5.19513 64.8645 5.0629C64.855 5.03456 64.8362 5.01567 64.8267 4.98734C63.2886 1.76653 61.4674 0.0380554 59.533 0.0380554C56.0511 0.0380554 53.0598 5.67684 51.4179 14.272C47.4075 7.64144 43.1895 3.43833 40.0378 3.43833C39.6321 3.43833 39.2452 3.50444 38.8866 3.63667C35.6122 4.80788 34.763 11.1078 36.1973 19.7313C31.0923 15.6132 26.4214 13.148 23.3074 13.148C22.26 13.148 21.3824 13.4219 20.7313 13.9697C18.0609 16.1704 19.448 22.3759 23.7887 29.9888C19.4858 28.5059 15.6358 27.6841 12.6728 27.6841C9.90801 27.6841 8.07739 28.3925 7.25644 29.7999C5.52018 32.7751 8.96439 38.1305 15.683 43.826C10.1345 43.8921 5.82214 44.6383 3.14225 45.9511C1.37768 46.8107 0.320829 47.9157 0.0849237 49.2192C-0.518994 52.5911 4.57656 56.4636 12.8521 59.5522C4.53881 62.5841 -0.556738 66.4567 0.0471788 69.838C0.64166 73.125 6.44493 75.1179 15.6452 75.2312C8.92665 80.9267 5.473 86.2821 7.2187 89.2574C8.03965 90.6647 9.86083 91.3731 12.6351 91.3731C15.598 91.3731 19.4669 90.5419 23.7698 89.059C22.7979 90.7591 21.9675 92.4026 21.2881 93.9705C18.9007 99.4865 18.6931 103.425 20.6936 105.087C21.3541 105.635 22.2223 105.909 23.2697 105.909C26.3836 105.909 31.0546 103.444 36.1595 99.3259C34.7252 107.949 35.5745 114.249 38.8489 115.421C39.2169 115.553 39.5943 115.619 40.0001 115.619C43.1518 115.619 47.3698 111.416 51.3801 104.785C53.022 113.371 56.0133 119.01 59.4953 119.01C62.9772 119.01 65.9685 113.371 67.6104 104.785C71.6114 111.416 75.8388 115.619 78.9905 115.619C79.3962 115.619 79.7831 115.553 80.1417 115.421C83.4161 114.249 84.2653 107.949 82.831 99.3259C87.9266 103.444 92.5975 105.909 95.7209 105.909C96.7777 105.909 97.6459 105.635 98.297 105.087C99.8728 103.784 100.071 101.064 98.9292 97.2763C98.9009 97.163 98.8631 97.0591 98.8348 96.9457C98.8065 96.8607 98.7688 96.7663 98.7405 96.6718C97.995 94.405 96.8155 91.8264 95.2396 89.059C99.5331 90.5419 103.393 91.3731 106.355 91.3731C109.12 91.3731 110.951 90.6647 111.772 89.2574C113.508 86.2821 110.064 80.9267 103.345 75.2312C112.546 75.1179 118.358 73.125 118.943 69.838C119.547 66.4567 114.442 62.5841 106.157 59.4955L106.176 59.5333Z" fill="#F8AFA6"/>
</g>
<defs>
<clipPath id="clip0_1_42">
<rect width="119" height="119" fill="white" transform="translate(0 0.000274658)"/>
</clipPath>
</defs>
</svg>
